<?xml version="1.0" encoding="UTF-8" standalone="no"?><svg xmlns="http://www.w3.org/2000/svg" xmlns:xlink="http://www.w3.org/1999/xlink" contentStyleType="text/css" height="342px" preserveAspectRatio="none" style="width:1053px;height:342px;background:#FFFFFF;" version="1.1" viewBox="0 0 1053 342" width="1053px" zoomAndPan="magnify"><defs/><g><!--MD5=[f9629a815b3dfa4bf441bbc800252e11]
cluster Система сбора и анализа списков абитуриентов--><g id="cluster_Система сбора и анализа списков абитуриентов"><path d="M286.5,6 L683.5,6 A3.75,3.75 0 0 1 686,8.5 L693,28.2969 L1043.5,28.2969 A2.5,2.5 0 0 1 1046,30.7969 L1046,332.5 A2.5,2.5 0 0 1 1043.5,335 L286.5,335 A2.5,2.5 0 0 1 284,332.5 L284,8.5 A2.5,2.5 0 0 1 286.5,6 " fill="none" style="stroke:#000000;stroke-width:1.5;"/><line style="stroke:#000000;stroke-width:1.5;" x1="284" x2="693" y1="28.2969" y2="28.2969"/><text fill="#000000" font-family="sans-serif" font-size="14" font-weight="bold" lengthAdjust="spacing" textLength="396" x="288" y="20.9951">Система сбора и анализа списков абитуриентов</text></g><g id="elem_UC1"><ellipse cx="472.1004" cy="79.8201" fill="#F1F1F1" rx="142.1004" ry="30.8201" style="stroke:#181818;stroke-width:0.5;"/><text fill="#000000" font-family="sans-serif" font-size="14" lengthAdjust="spacing" textLength="254" x="345.1004" y="82.6668">Работа со списками абитуриентов</text></g><g id="elem_UC2"><ellipse cx="471.9927" cy="177.7985" fill="#F1F1F1" rx="144.4927" ry="31.2985" style="stroke:#181818;stroke-width:0.5;"/><text fill="#000000" font-family="sans-serif" font-size="14" lengthAdjust="spacing" textLength="259" x="342.4927" y="180.6452">Просмотр данных об абитуриентах</text></g><g id="elem_UC3"><ellipse cx="905.6963" cy="299.9393" fill="#F1F1F1" rx="80.1963" ry="18.4393" style="stroke:#181818;stroke-width:0.5;"/><text fill="#000000" font-family="sans-serif" font-size="14" lengthAdjust="spacing" textLength="119" x="844.6039" y="303.2979">Поиск по списку</text></g><g id="elem_UC4"><ellipse cx="905.5326" cy="218.8065" fill="#F1F1F1" rx="124.5326" ry="27.3065" style="stroke:#181818;stroke-width:0.5;"/><text fill="#000000" font-family="sans-serif" font-size="14" lengthAdjust="spacing" textLength="217" x="797.0326" y="221.6532">Фильтрация данных в списке</text></g><g id="elem_UC5"><ellipse cx="905.6163" cy="135.2233" fill="#F1F1F1" rx="94.1163" ry="21.2233" style="stroke:#181818;stroke-width:0.5;"/><text fill="#000000" font-family="sans-serif" font-size="14" lengthAdjust="spacing" textLength="151" x="830.1163" y="138.0699">Сортировка списков</text></g><g id="elem_UC6"><ellipse cx="905.5656" cy="60.1131" fill="#F1F1F1" rx="83.5656" ry="19.1131" style="stroke:#181818;stroke-width:0.5;"/><text fill="#000000" font-family="sans-serif" font-size="14" lengthAdjust="spacing" textLength="127" x="841.6623" y="63.0974">Загрузка списков</text></g><g id="elem_UC7"><ellipse cx="471.985" cy="281.797" fill="#F1F1F1" rx="171.985" ry="36.797" style="stroke:#181818;stroke-width:0.5;"/><text fill="#000000" font-family="sans-serif" font-size="14" lengthAdjust="spacing" textLength="316" x="313.985" y="284.6437">Поиск оптимального балла зеленой волны</text></g><!--MD5=[acebe9e291a1068bd7b4ed034caf4af9]
entity act--><g id="elem_act"><ellipse cx="121.5" cy="148.5" fill="#F1F1F1" rx="8" ry="8" style="stroke:#181818;stroke-width:0.5;"/><path d="M121.5,156.5 L121.5,183.5 M108.5,164.5 L134.5,164.5 M121.5,183.5 L108.5,198.5 M121.5,183.5 L134.5,198.5 " fill="none" style="stroke:#181818;stroke-width:0.5;"/><text fill="#000000" font-family="sans-serif" font-size="14" lengthAdjust="spacing" textLength="231" x="6" y="212.9951">Сотрудник приемной комиссии</text></g><!--MD5=[28c5cc309cea85ee158287ab90164564]
link act to UC1--><g id="link_act_UC1"><path d="M237.09,140.55 C250.18,136.53 263.36,132.6 276,129 C306.31,120.36 339.49,111.73 369.75,104.16 " fill="none" id="act-to-UC1" style="stroke:#181818;stroke-width:1.0;"/><polygon fill="#181818" points="374.97,102.86,365.2686,101.1623,370.1193,104.0727,367.2089,108.9234,374.97,102.86" style="stroke:#181818;stroke-width:1.0;"/></g><!--MD5=[41c526e4dd82add039b81dec06fb96a9]
link act to UC2--><g id="link_act_UC2"><path d="M237.09,178 C264.27,178 293.64,178 322.1,178 " fill="none" id="act-to-UC2" style="stroke:#181818;stroke-width:1.0;"/><polygon fill="#181818" points="327.4,178,318.4,174,322.4,178,318.4,182,327.4,178" style="stroke:#181818;stroke-width:1.0;"/></g><!--MD5=[d2ab5564aaa273a263cdcded5c26be94]
link act to UC7--><g id="link_act_UC7"><path d="M237.2,215.08 C250.27,219.17 263.41,223.22 276,227 C303.19,235.17 332.63,243.66 360.18,251.45 " fill="none" id="act-to-UC7" style="stroke:#181818;stroke-width:1.0;"/><polygon fill="#181818" points="365.31,252.9,357.7329,246.6081,360.4976,251.5434,355.5623,254.308,365.31,252.9" style="stroke:#181818;stroke-width:1.0;"/></g><!--MD5=[a1d4b06a7f08f673ba6551d9d9d7a186]
link UC1 to UC3--><g id="link_UC1_UC3"><path d="M587.4,98.19 C607.82,105.32 627.74,115.23 644,129 C667.67,149.04 653.75,168.51 674,192 C711.43,235.41 729.09,239.69 781,264 C800.2,272.99 822.15,280.27 842.17,285.86 " fill="none" id="UC1-to-UC3" style="stroke:#181818;stroke-width:1.0;stroke-dasharray:7.0,7.0;"/><polygon fill="#181818" points="847.21,287.25,839.5812,281.021,842.3865,285.9332,837.4743,288.7386,847.21,287.25" style="stroke:#181818;stroke-width:1.0;"/><text fill="#000000" font-family="sans-serif" font-size="13" lengthAdjust="spacing" textLength="75" x="675" y="188.0669">расширяет</text></g><!--MD5=[41a13eddb1eb4ad2a8fa357668cebe40]
link UC1 to UC4--><g id="link_UC1_UC4"><path d="M561.68,104.09 C588.27,111.67 617.43,120.33 644,129 C657.5,133.4 660.62,135.25 674,140 C726.51,158.62 786,178.99 831.38,194.38 " fill="none" id="UC1-to-UC4" style="stroke:#181818;stroke-width:1.0;stroke-dasharray:7.0,7.0;"/><polygon fill="#181818" points="836.29,196.05,829.0408,189.383,831.5523,194.4517,826.4836,196.9633,836.29,196.05" style="stroke:#181818;stroke-width:1.0;"/><text fill="#000000" font-family="sans-serif" font-size="13" lengthAdjust="spacing" textLength="75" x="675" y="136.0669">расширяет</text></g><!--MD5=[33db5329112521c846cf0b630a56623e]
link UC1 to UC5--><g id="link_UC1_UC5"><path d="M594.92,95.54 C666.07,104.61 754.12,115.83 818.1,123.99 " fill="none" id="UC1-to-UC5" style="stroke:#181818;stroke-width:1.0;stroke-dasharray:7.0,7.0;"/><polygon fill="#181818" points="823.44,124.67,815.0147,119.5696,818.4797,124.041,814.0083,127.5061,823.44,124.67" style="stroke:#181818;stroke-width:1.0;"/><text fill="#000000" font-family="sans-serif" font-size="13" lengthAdjust="spacing" textLength="75" x="675" y="102.0669">расширяет</text></g><!--MD5=[aa9d2cfd37f9b85e856ad6a1e4475780]
link UC1 to UC6--><g id="link_UC1_UC6"><path d="M611.01,73.6 C678.99,70.45 758.85,66.75 818.09,64.01 " fill="none" id="UC1-to-UC6" style="stroke:#181818;stroke-width:1.0;stroke-dasharray:7.0,7.0;"/><polygon fill="#181818" points="823.4,63.76,814.2267,60.1752,818.4052,63.9883,814.5921,68.1668,823.4,63.76" style="stroke:#181818;stroke-width:1.0;"/><text fill="#000000" font-family="sans-serif" font-size="13" lengthAdjust="spacing" textLength="68" x="678.5" y="64.0669">включает</text></g><!--MD5=[5c15bf56ba4fa1a8c71c6e9ea97609b9]
@startuml
left to right direction


actor "Сотрудник приемной комиссии" as act
package "Система сбора и анализа списков абитуриентов" {
  usecase UC1 as "Работа со списками абитуриентов"
  usecase UC2 as "Просмотр данных об абитуриентах"
  usecase UC3 as "Поиск по списку"
  usecase UC4 as "Фильтрация данных в списке"
  usecase UC5 as "Сортировка списков"
  usecase UC6 as "Загрузка списков"
  usecase UC7 as "Поиск оптимального балла зеленой волны"
}

act - -> UC1
act - -> UC2
act - -> UC7
UC1 ..> UC3: расширяет
UC1 ..> UC4: расширяет
UC1 ..> UC5: расширяет
UC1 ..> UC6: включает
@enduml

PlantUML version 1.2022.7(Mon Aug 22 17:01:30 UTC 2022)
(GPL source distribution)
Java Runtime: OpenJDK Runtime Environment
JVM: OpenJDK 64-Bit Server VM
Default Encoding: UTF-8
Language: en
Country: null
--></g></svg>