<?xml version="1.0" encoding="UTF-8" standalone="no"?><svg xmlns="http://www.w3.org/2000/svg" xmlns:xlink="http://www.w3.org/1999/xlink" contentStyleType="text/css" height="466px" preserveAspectRatio="none" style="width:1004px;height:466px;background:#FFFFFF;" version="1.1" viewBox="0 0 1004 466" width="1004px" zoomAndPan="magnify"><defs/><g><!--MD5=[f9629a815b3dfa4bf441bbc800252e11]
cluster Система сбора и анализа списков абитуриентов--><g id="cluster_Система сбора и анализа списков абитуриентов"><path d="M240.5,6 L637.5,6 A3.75,3.75 0 0 1 640,8.5 L647,28.2969 L994.5,28.2969 A2.5,2.5 0 0 1 997,30.7969 L997,456.5 A2.5,2.5 0 0 1 994.5,459 L240.5,459 A2.5,2.5 0 0 1 238,456.5 L238,8.5 A2.5,2.5 0 0 1 240.5,6 " fill="none" style="stroke:#000000;stroke-width:1.5;"/><line style="stroke:#000000;stroke-width:1.5;" x1="238" x2="647" y1="28.2969" y2="28.2969"/><text fill="#000000" font-family="sans-serif" font-size="14" font-weight="bold" lengthAdjust="spacing" textLength="396" x="242" y="20.9951">Система сбора и анализа списков абитуриентов</text></g><g id="elem_UC1"><ellipse cx="404.6004" cy="228.8201" fill="#F1F1F1" rx="142.1004" ry="30.8201" style="stroke:#181818;stroke-width:0.5;"/><text fill="#000000" font-family="sans-serif" font-size="14" lengthAdjust="spacing" textLength="254" x="277.6004" y="231.6668">Работа со списками абитуриентов</text></g><g id="elem_UC2"><ellipse cx="836.4927" cy="252.7985" fill="#F1F1F1" rx="144.4927" ry="31.2985" style="stroke:#181818;stroke-width:0.5;"/><text fill="#000000" font-family="sans-serif" font-size="14" lengthAdjust="spacing" textLength="259" x="706.9927" y="255.6452">Просмотр данных об абитуриентах</text></g><g id="elem_UC3"><ellipse cx="836.5617" cy="159.2123" fill="#F1F1F1" rx="124.0617" ry="27.2123" style="stroke:#181818;stroke-width:0.5;"/><text fill="#000000" font-family="sans-serif" font-size="14" lengthAdjust="spacing" textLength="216" x="728.5617" y="162.059">Добавление данных в списки</text></g><g id="elem_UC4"><ellipse cx="836.3908" cy="68.7782" fill="#F1F1F1" rx="126.8908" ry="27.7782" style="stroke:#181818;stroke-width:0.5;"/><text fill="#000000" font-family="sans-serif" font-size="14" lengthAdjust="spacing" textLength="222" x="725.3908" y="71.6248">Обновление данных в списках</text></g><g id="elem_UC5"><ellipse cx="404.7292" cy="340.0458" fill="#F1F1F1" rx="150.7292" ry="32.5458" style="stroke:#181818;stroke-width:0.5;"/><text fill="#000000" font-family="sans-serif" font-size="14" lengthAdjust="spacing" textLength="272" x="268.7292" y="342.8925">Управление периодами поступления</text></g><g id="elem_UC6"><ellipse cx="836.4496" cy="418.9899" fill="#F1F1F1" rx="105.4496" ry="23.4899" style="stroke:#181818;stroke-width:0.5;"/><text fill="#000000" font-family="sans-serif" font-size="14" lengthAdjust="spacing" textLength="176" x="748.4496" y="421.8366">Открытие нового срока</text></g><g id="elem_UC7"><ellipse cx="836.2915" cy="340.1583" fill="#F1F1F1" rx="88.7915" ry="20.1583" style="stroke:#181818;stroke-width:0.5;"/><text fill="#000000" font-family="sans-serif" font-size="14" lengthAdjust="spacing" textLength="139" x="766.7915" y="343.005">Закрытие периода</text></g><!--MD5=[acebe9e291a1068bd7b4ed034caf4af9]
entity act--><g id="elem_act"><ellipse cx="98.5" cy="255.5" fill="#F1F1F1" rx="8" ry="8" style="stroke:#181818;stroke-width:0.5;"/><path d="M98.5,263.5 L98.5,290.5 M85.5,271.5 L111.5,271.5 M98.5,290.5 L85.5,305.5 M98.5,290.5 L111.5,305.5 " fill="none" style="stroke:#181818;stroke-width:0.5;"/><text fill="#000000" font-family="sans-serif" font-size="14" lengthAdjust="spacing" textLength="185" x="6" y="319.9951">Администратор системы</text></g><!--MD5=[28c5cc309cea85ee158287ab90164564]
link act to UC1--><g id="link_act_UC1"><path d="M191.12,268.12 C222.32,262.38 257.57,255.88 290.26,249.86 " fill="none" id="act-to-UC1" style="stroke:#181818;stroke-width:1.0;"/><polygon fill="#181818" points="295.48,248.9,285.9079,246.5818,290.5613,249.7982,287.345,254.4517,295.48,248.9" style="stroke:#181818;stroke-width:1.0;"/></g><!--MD5=[c3f1ffd9889f262ff41c18efecc9b79c]
link act to UC5--><g id="link_act_UC5"><path d="M191.12,301.58 C220.25,306.85 252.9,312.75 283.71,318.33 " fill="none" id="act-to-UC5" style="stroke:#181818;stroke-width:1.0;"/><polygon fill="#181818" points="288.63,319.22,280.4978,313.6641,283.7118,318.3193,279.0567,321.5333,288.63,319.22" style="stroke:#181818;stroke-width:1.0;"/></g><!--MD5=[1aa3f81a3bd80cff712043234baebedb]
link UC1 to UC2--><g id="link_UC1_UC2"><path d="M542.15,236.63 C589.6,239.28 642.95,242.25 691.02,244.94 " fill="none" id="UC1-to-UC2" style="stroke:#181818;stroke-width:1.0;stroke-dasharray:7.0,7.0;"/><polygon fill="#181818" points="696.25,245.23,687.4929,240.7231,691.2581,244.9448,687.0365,248.71,696.25,245.23" style="stroke:#181818;stroke-width:1.0;"/><text fill="#000000" font-family="sans-serif" font-size="13" lengthAdjust="spacing" textLength="75" x="586" y="236.0669">расширяет</text></g><!--MD5=[a1d4b06a7f08f673ba6551d9d9d7a186]
link UC1 to UC3--><g id="link_UC1_UC3"><path d="M518.76,210.56 C584.72,199.82 667.29,186.38 731.58,175.92 " fill="none" id="UC1-to-UC3" style="stroke:#181818;stroke-width:1.0;stroke-dasharray:7.0,7.0;"/><polygon fill="#181818" points="736.57,175.1,727.0395,172.6161,731.6365,175.9127,728.3399,180.5097,736.57,175.1" style="stroke:#181818;stroke-width:1.0;"/><text fill="#000000" font-family="sans-serif" font-size="13" lengthAdjust="spacing" textLength="68" x="589.5" y="184.0669">включает</text></g><!--MD5=[41a13eddb1eb4ad2a8fa357668cebe40]
link UC1 to UC4--><g id="link_UC1_UC4"><path d="M470.09,201.4 C527.8,177.14 614.89,141.52 692,114 C712.26,106.77 734.35,99.53 754.98,93.04 " fill="none" id="UC1-to-UC4" style="stroke:#181818;stroke-width:1.0;stroke-dasharray:7.0,7.0;"/><polygon fill="#181818" points="759.91,91.49,750.1247,90.3732,755.1401,92.9895,752.5239,98.005,759.91,91.49" style="stroke:#181818;stroke-width:1.0;"/><text fill="#000000" font-family="sans-serif" font-size="13" lengthAdjust="spacing" textLength="75" x="586" y="122.0669">расширяет</text></g><!--MD5=[3ab3c4f0aa88f122bda36575115a204e]
link UC5 to UC6--><g id="link_UC5_UC6"><path d="M519.6,360.96 C591.74,374.22 683.49,391.07 749.49,403.2 " fill="none" id="UC5-to-UC6" style="stroke:#181818;stroke-width:1.0;stroke-dasharray:7.0,7.0;"/><polygon fill="#181818" points="754.6,404.14,746.4835,398.5613,749.6843,403.2255,745.0202,406.4263,754.6,404.14" style="stroke:#181818;stroke-width:1.0;"/><text fill="#000000" font-family="sans-serif" font-size="13" lengthAdjust="spacing" textLength="68" x="589.5" y="371.0669">включает</text></g><!--MD5=[cc71c0309851e79daa6bf762f0d3aab0]
link UC5 to UC7--><g id="link_UC5_UC7"><path d="M555.29,340 C617.4,340 687.52,340 742.08,340 " fill="none" id="UC5-to-UC7" style="stroke:#181818;stroke-width:1.0;stroke-dasharray:7.0,7.0;"/><polygon fill="#181818" points="747.31,340,738.31,336,742.31,340,738.31,344,747.31,340" style="stroke:#181818;stroke-width:1.0;"/><text fill="#000000" font-family="sans-serif" font-size="13" lengthAdjust="spacing" textLength="68" x="589.5" y="336.0669">включает</text></g><!--MD5=[53abf49898afd390c19203c7f8a396e8]
@startuml
left to right direction


actor "Администратор системы" as act
package "Система сбора и анализа списков абитуриентов" {
  usecase UC1 as "Работа со списками абитуриентов"
  usecase UC2 as "Просмотр данных об абитуриентах"
  usecase UC3 as "Добавление данных в списки"
  usecase UC4 as "Обновление данных в списках"
  usecase UC5 as "Управление периодами поступления"
  usecase UC6 as "Открытие нового срока"
  usecase UC7 as "Закрытие периода"

}

act - -> UC1
act - -> UC5
UC1 ..> UC2: расширяет
UC1 ..> UC3: включает
UC1 ..> UC4: расширяет
UC5 ..> UC6: включает
UC5 ..> UC7: включает
@enduml

PlantUML version 1.2022.7(Mon Aug 22 17:01:30 UTC 2022)
(GPL source distribution)
Java Runtime: OpenJDK Runtime Environment
JVM: OpenJDK 64-Bit Server VM
Default Encoding: UTF-8
Language: en
Country: null
--></g></svg>